<?xml version="1.0" encoding="UTF-8"?>
<svg id="Layer_2" data-name="Layer 2" xmlns="http://www.w3.org/2000/svg" viewBox="0 0 189.04 287.25">
  <defs>
    <style>
      .cls-1 {
        fill: none;
        stroke: #745b5b;
        stroke-miterlimit: 10;
      }
    </style>
  </defs>
  <g id="Layer_1-2" data-name="Layer 1">
    <polygon class="cls-1" points="44.48 80.03 44.48 89.99 2.91 89.99 2.91 .63 13.08 .63 13.08 80.03 44.48 80.03"/>
    <polygon class="cls-1" points="60.11 11.23 60.11 35.86 92.28 35.86 92.28 46.59 60.11 46.59 60.11 79.4 92.92 79.4 92.92 90.12 48.74 90.12 48.74 .5 92.92 .5 92.92 11.23 60.11 11.23"/>
    <polygon class="cls-1" points="109.87 11.23 109.87 35.86 142.04 35.86 142.04 46.59 109.87 46.59 109.87 79.4 142.68 79.4 142.68 90.12 98.51 90.12 98.51 .5 142.68 .5 142.68 11.23 109.87 11.23"/>
    <polygon class="cls-1" points="45.31 99.69 45.31 198.59 34.42 198.59 34.42 140.08 12.97 140.08 12.97 198.59 2.08 198.59 2.08 99.69 12.97 99.69 12.97 122.84 34.42 122.84 34.42 99.69 45.31 99.69"/>
    <polygon class="cls-1" points="94.92 99.1 77.72 178.93 77.72 199.18 66.83 199.18 66.83 178.93 49.13 99.1 61.38 99.1 72.28 154.25 83.34 99.1 94.92 99.1"/>
    <path class="cls-1" d="M119.19,199.56s-20.68,.94-20.68-17.79V98.71h10.55v83.06s.94,9.54,9.62,9.11c0,0,9.62,1.11,9.62-9.11V98.71h10.55v83.06s1.53,17.71-19.66,17.79Z"/>
    <path class="cls-1" d="M168.85,286.74s-20.68,.93-20.68-17.79v-60.06h10.55v60.06s.94,9.53,9.62,9.1c0,0,9.61,1.11,9.61-9.1v-60.06h10.56v60.06s1.53,17.7-19.66,17.79Z"/>
    <polygon class="cls-1" points="188.53 .5 188.53 198.88 178.32 198.88 156.36 146.03 156.36 198.88 146.15 198.88 146.15 .5 156.36 .5 156.36 122.67 178.32 174.12 178.32 .5 188.53 .5"/>
    <path class="cls-1" d="M137.02,264.42c-2.26,22.98-24.86,19.66-24.86,19.66H24.33c-23.66-1.92-23.83-23.62-23.83-23.62H16.5c.56,9.96,7.83,12.72,7.83,12.72H112.16c9.66-.93,9.11-9.78,9.11-9.78,.77-14.9-16.77-13.54-16.77-13.54H24.33c-20.76,0-21.1-21.95-21.1-21.95,.17-18.22,21.1-19.75,21.1-19.75H112.16c25.54,1.19,24.86,22.13,24.86,22.13h-15.83c0-11.24-9.03-11.24-9.03-11.24H24.33s-7.83,.18-7.83,9.96,13.28,9.96,13.28,9.96H104.5c35.83,4.04,32.52,25.45,32.52,25.45Z"/>
  </g>
</svg>